<mxfile host="drawio-plugin" modified="2023-11-21T06:36:13.718Z" agent="5.0 (Macintosh; Intel Mac OS X 10_15_7) AppleWebKit/537.36 (KHTML, like Gecko) Chrome/104.0.5112.102 Safari/537.36" etag="GQlnIxmJfNEKDn8YcjMq" version="20.5.3" type="embed" pages="3"><diagram name="global-overview" id="oW-OW8wNA82ihpMSP9iA"><mxGraphModel dx="2368" dy="1067" grid="0" gridSize="10" guides="0" tooltips="1" connect="0" arrows="0" fold="1" page="0" pageScale="1" pageWidth="1169" pageHeight="827" math="0" shadow="0"><root><mxCell id="0"/><mxCell id="1" parent="0"/><mxCell id="yl3veX5Xm9Zuc3RiuTOj-28" value="" style="rounded=0;whiteSpace=wrap;html=1;" parent="1" vertex="1"><mxGeometry x="462.5" y="220" width="165" height="260" as="geometry"/></mxCell><mxCell id="yl3veX5Xm9Zuc3RiuTOj-3" value="" style="edgeStyle=orthogonalEdgeStyle;rounded=0;orthogonalLoop=1;jettySize=auto;html=1;" parent="1" source="yl3veX5Xm9Zuc3RiuTOj-1" target="yl3veX5Xm9Zuc3RiuTOj-2" edge="1"><mxGeometry relative="1" as="geometry"/></mxCell><mxCell id="P9-Pfm3qsMGepWDaobiE-10" value="" style="edgeStyle=orthogonalEdgeStyle;rounded=0;orthogonalLoop=1;jettySize=auto;html=1;dashed=1;endArrow=none;endFill=0;" parent="1" source="yl3veX5Xm9Zuc3RiuTOj-1" target="P9-Pfm3qsMGepWDaobiE-9" edge="1"><mxGeometry relative="1" as="geometry"/></mxCell><mxCell id="yl3veX5Xm9Zuc3RiuTOj-1" value="JobLauncher" style="rounded=1;whiteSpace=wrap;html=1;fillColor=#ffe6cc;strokeColor=#d79b00;fontColor=#000000;" parent="1" vertex="1"><mxGeometry x="50" y="333" width="140" height="40" as="geometry"/></mxCell><mxCell id="yl3veX5Xm9Zuc3RiuTOj-24" style="edgeStyle=orthogonalEdgeStyle;rounded=0;orthogonalLoop=1;jettySize=auto;html=1;entryX=0;entryY=0.5;entryDx=0;entryDy=0;curved=1;" parent="1" source="yl3veX5Xm9Zuc3RiuTOj-2" target="yl3veX5Xm9Zuc3RiuTOj-6" edge="1"><mxGeometry relative="1" as="geometry"/></mxCell><mxCell id="yl3veX5Xm9Zuc3RiuTOj-25" style="edgeStyle=orthogonalEdgeStyle;rounded=0;orthogonalLoop=1;jettySize=auto;html=1;entryX=0;entryY=0.5;entryDx=0;entryDy=0;curved=1;" parent="1" source="yl3veX5Xm9Zuc3RiuTOj-2" target="yl3veX5Xm9Zuc3RiuTOj-20" edge="1"><mxGeometry relative="1" as="geometry"/></mxCell><mxCell id="yl3veX5Xm9Zuc3RiuTOj-27" style="edgeStyle=orthogonalEdgeStyle;rounded=0;orthogonalLoop=1;jettySize=auto;html=1;entryX=0;entryY=0.5;entryDx=0;entryDy=0;curved=1;" parent="1" source="yl3veX5Xm9Zuc3RiuTOj-2" target="yl3veX5Xm9Zuc3RiuTOj-26" edge="1"><mxGeometry relative="1" as="geometry"/></mxCell><mxCell id="yl3veX5Xm9Zuc3RiuTOj-2" value="Job" style="whiteSpace=wrap;html=1;rounded=1;fillColor=#e1d5e7;strokeColor=#9673a6;fontColor=#000000;" parent="1" vertex="1"><mxGeometry x="270" y="333" width="120" height="40" as="geometry"/></mxCell><mxCell id="yl3veX5Xm9Zuc3RiuTOj-14" style="edgeStyle=orthogonalEdgeStyle;rounded=0;orthogonalLoop=1;jettySize=auto;html=1;entryX=0;entryY=0.5;entryDx=0;entryDy=0;curved=1;" parent="1" source="yl3veX5Xm9Zuc3RiuTOj-6" target="yl3veX5Xm9Zuc3RiuTOj-11" edge="1"><mxGeometry relative="1" as="geometry"/></mxCell><mxCell id="yl3veX5Xm9Zuc3RiuTOj-15" style="edgeStyle=orthogonalEdgeStyle;rounded=0;orthogonalLoop=1;jettySize=auto;html=1;entryX=0;entryY=0.5;entryDx=0;entryDy=0;" parent="1" source="yl3veX5Xm9Zuc3RiuTOj-6" target="yl3veX5Xm9Zuc3RiuTOj-12" edge="1"><mxGeometry relative="1" as="geometry"/></mxCell><mxCell id="yl3veX5Xm9Zuc3RiuTOj-16" style="edgeStyle=orthogonalEdgeStyle;rounded=0;orthogonalLoop=1;jettySize=auto;html=1;entryX=0;entryY=0.5;entryDx=0;entryDy=0;curved=1;" parent="1" source="yl3veX5Xm9Zuc3RiuTOj-6" target="yl3veX5Xm9Zuc3RiuTOj-13" edge="1"><mxGeometry relative="1" as="geometry"/></mxCell><mxCell id="yl3veX5Xm9Zuc3RiuTOj-6" value="Step 1" style="whiteSpace=wrap;html=1;rounded=1;fillColor=#dae8fc;strokeColor=#6c8ebf;fontColor=#000000;" parent="1" vertex="1"><mxGeometry x="485" y="237" width="120" height="40" as="geometry"/></mxCell><mxCell id="yl3veX5Xm9Zuc3RiuTOj-11" value="ItemReader" style="whiteSpace=wrap;html=1;rounded=1;fillColor=#fff2cc;strokeColor=#d6b656;fontColor=#000000;" parent="1" vertex="1"><mxGeometry x="720" y="173" width="120" height="40" as="geometry"/></mxCell><mxCell id="yl3veX5Xm9Zuc3RiuTOj-38" style="rounded=0;orthogonalLoop=1;jettySize=auto;html=1;" parent="1" source="yl3veX5Xm9Zuc3RiuTOj-12" target="yl3veX5Xm9Zuc3RiuTOj-37" edge="1"><mxGeometry relative="1" as="geometry"/></mxCell><mxCell id="yl3veX5Xm9Zuc3RiuTOj-12" value="ItemProcessor" style="whiteSpace=wrap;html=1;rounded=1;fillColor=#fff2cc;strokeColor=#d6b656;fontColor=#000000;" parent="1" vertex="1"><mxGeometry x="720" y="237" width="120" height="40" as="geometry"/></mxCell><mxCell id="yl3veX5Xm9Zuc3RiuTOj-41" style="edgeStyle=orthogonalEdgeStyle;rounded=0;orthogonalLoop=1;jettySize=auto;html=1;curved=1;" parent="1" source="yl3veX5Xm9Zuc3RiuTOj-13" target="yl3veX5Xm9Zuc3RiuTOj-39" edge="1"><mxGeometry relative="1" as="geometry"/></mxCell><mxCell id="yl3veX5Xm9Zuc3RiuTOj-13" value="ItemWriter" style="whiteSpace=wrap;html=1;rounded=1;fillColor=#fff2cc;strokeColor=#d6b656;fontColor=#000000;" parent="1" vertex="1"><mxGeometry x="720" y="293" width="120" height="40" as="geometry"/></mxCell><mxCell id="yl3veX5Xm9Zuc3RiuTOj-17" style="edgeStyle=orthogonalEdgeStyle;rounded=0;orthogonalLoop=1;jettySize=auto;html=1;entryX=0;entryY=0.5;entryDx=0;entryDy=0;curved=1;" parent="1" source="yl3veX5Xm9Zuc3RiuTOj-20" target="yl3veX5Xm9Zuc3RiuTOj-21" edge="1"><mxGeometry relative="1" as="geometry"/></mxCell><mxCell id="yl3veX5Xm9Zuc3RiuTOj-18" style="edgeStyle=orthogonalEdgeStyle;rounded=0;orthogonalLoop=1;jettySize=auto;html=1;entryX=0;entryY=0.5;entryDx=0;entryDy=0;curved=1;" parent="1" source="yl3veX5Xm9Zuc3RiuTOj-20" target="yl3veX5Xm9Zuc3RiuTOj-22" edge="1"><mxGeometry relative="1" as="geometry"/></mxCell><mxCell id="yl3veX5Xm9Zuc3RiuTOj-19" style="edgeStyle=orthogonalEdgeStyle;rounded=0;orthogonalLoop=1;jettySize=auto;html=1;entryX=0;entryY=0.5;entryDx=0;entryDy=0;curved=1;" parent="1" source="yl3veX5Xm9Zuc3RiuTOj-20" target="yl3veX5Xm9Zuc3RiuTOj-23" edge="1"><mxGeometry relative="1" as="geometry"/></mxCell><mxCell id="yl3veX5Xm9Zuc3RiuTOj-20" value="Step N" style="whiteSpace=wrap;html=1;rounded=1;fillColor=#dae8fc;strokeColor=#6c8ebf;fontColor=#000000;" parent="1" vertex="1"><mxGeometry x="485" y="427" width="120" height="40" as="geometry"/></mxCell><mxCell id="P9-Pfm3qsMGepWDaobiE-4" style="rounded=0;orthogonalLoop=1;jettySize=auto;html=1;entryX=0;entryY=0.5;entryDx=0;entryDy=0;endArrow=none;endFill=0;dashed=1;exitX=1;exitY=0.5;exitDx=0;exitDy=0;" parent="1" source="yl3veX5Xm9Zuc3RiuTOj-21" target="P9-Pfm3qsMGepWDaobiE-3" edge="1"><mxGeometry relative="1" as="geometry"><Array as="points"><mxPoint x="938" y="355"/></Array></mxGeometry></mxCell><mxCell id="yl3veX5Xm9Zuc3RiuTOj-21" value="ItemReader" style="whiteSpace=wrap;html=1;rounded=1;fillColor=#fff2cc;strokeColor=#d6b656;fontColor=#000000;" parent="1" vertex="1"><mxGeometry x="720" y="363" width="120" height="40" as="geometry"/></mxCell><mxCell id="P9-Pfm3qsMGepWDaobiE-7" style="rounded=0;orthogonalLoop=1;jettySize=auto;html=1;endArrow=none;endFill=0;dashed=1;" parent="1" source="yl3veX5Xm9Zuc3RiuTOj-22" target="P9-Pfm3qsMGepWDaobiE-5" edge="1"><mxGeometry relative="1" as="geometry"/></mxCell><mxCell id="yl3veX5Xm9Zuc3RiuTOj-22" value="ItemProcessor" style="whiteSpace=wrap;html=1;rounded=1;fillColor=#fff2cc;strokeColor=#d6b656;fontColor=#000000;" parent="1" vertex="1"><mxGeometry x="720" y="427" width="120" height="40" as="geometry"/></mxCell><mxCell id="P9-Pfm3qsMGepWDaobiE-8" style="rounded=0;orthogonalLoop=1;jettySize=auto;html=1;endArrow=none;endFill=0;dashed=1;exitX=1;exitY=0.5;exitDx=0;exitDy=0;" parent="1" source="yl3veX5Xm9Zuc3RiuTOj-23" target="P9-Pfm3qsMGepWDaobiE-6" edge="1"><mxGeometry relative="1" as="geometry"/></mxCell><mxCell id="yl3veX5Xm9Zuc3RiuTOj-23" value="ItemWriter" style="whiteSpace=wrap;html=1;rounded=1;fillColor=#fff2cc;strokeColor=#d6b656;fontColor=#000000;" parent="1" vertex="1"><mxGeometry x="720" y="483" width="120" height="40" as="geometry"/></mxCell><mxCell id="yl3veX5Xm9Zuc3RiuTOj-26" value="..." style="whiteSpace=wrap;html=1;rounded=1;fillColor=#dae8fc;strokeColor=#6c8ebf;fontColor=#000000;" parent="1" vertex="1"><mxGeometry x="485" y="333" width="120" height="40" as="geometry"/></mxCell><mxCell id="yl3veX5Xm9Zuc3RiuTOj-44" style="edgeStyle=orthogonalEdgeStyle;rounded=0;orthogonalLoop=1;jettySize=auto;html=1;" parent="1" source="yl3veX5Xm9Zuc3RiuTOj-29" target="yl3veX5Xm9Zuc3RiuTOj-43" edge="1"><mxGeometry relative="1" as="geometry"/></mxCell><mxCell id="yl3veX5Xm9Zuc3RiuTOj-29" value="JobRepository" style="rounded=1;whiteSpace=wrap;html=1;fillColor=#d5e8d4;strokeColor=#82b366;fontColor=#000000;" parent="1" vertex="1"><mxGeometry x="40" y="610" width="590" height="40" as="geometry"/></mxCell><mxCell id="yl3veX5Xm9Zuc3RiuTOj-30" style="edgeStyle=orthogonalEdgeStyle;rounded=0;orthogonalLoop=1;jettySize=auto;html=1;entryX=0.137;entryY=0.049;entryDx=0;entryDy=0;entryPerimeter=0;shape=flexArrow;startArrow=block;" parent="1" source="yl3veX5Xm9Zuc3RiuTOj-1" target="yl3veX5Xm9Zuc3RiuTOj-29" edge="1"><mxGeometry relative="1" as="geometry"/></mxCell><mxCell id="yl3veX5Xm9Zuc3RiuTOj-31" style="edgeStyle=orthogonalEdgeStyle;rounded=0;orthogonalLoop=1;jettySize=auto;html=1;entryX=0.492;entryY=0;entryDx=0;entryDy=0;entryPerimeter=0;shape=flexArrow;startArrow=block;" parent="1" source="yl3veX5Xm9Zuc3RiuTOj-2" target="yl3veX5Xm9Zuc3RiuTOj-29" edge="1"><mxGeometry relative="1" as="geometry"/></mxCell><mxCell id="yl3veX5Xm9Zuc3RiuTOj-32" style="edgeStyle=orthogonalEdgeStyle;rounded=0;orthogonalLoop=1;jettySize=auto;html=1;entryX=0.856;entryY=0.049;entryDx=0;entryDy=0;entryPerimeter=0;shape=flexArrow;startArrow=block;startFill=0;" parent="1" source="yl3veX5Xm9Zuc3RiuTOj-28" target="yl3veX5Xm9Zuc3RiuTOj-29" edge="1"><mxGeometry relative="1" as="geometry"/></mxCell><mxCell id="yl3veX5Xm9Zuc3RiuTOj-33" value="" style="sketch=0;aspect=fixed;pointerEvents=1;shadow=0;dashed=0;html=1;strokeColor=none;labelPosition=center;verticalLabelPosition=bottom;verticalAlign=top;align=center;fillColor=#00188D;shape=mxgraph.azure.file;fontStyle=1" parent="1" vertex="1"><mxGeometry x="889.92" y="200" width="30.08" height="32" as="geometry"/></mxCell><mxCell id="yl3veX5Xm9Zuc3RiuTOj-34" value="" style="strokeWidth=2;html=1;shape=mxgraph.flowchart.database;whiteSpace=wrap;" parent="1" vertex="1"><mxGeometry x="889.92" y="150" width="30" height="32" as="geometry"/></mxCell><mxCell id="yl3veX5Xm9Zuc3RiuTOj-35" style="edgeStyle=orthogonalEdgeStyle;rounded=0;orthogonalLoop=1;jettySize=auto;html=1;entryX=0;entryY=0.5;entryDx=0;entryDy=0;entryPerimeter=0;curved=1;" parent="1" source="yl3veX5Xm9Zuc3RiuTOj-11" target="yl3veX5Xm9Zuc3RiuTOj-33" edge="1"><mxGeometry relative="1" as="geometry"/></mxCell><mxCell id="yl3veX5Xm9Zuc3RiuTOj-36" style="edgeStyle=orthogonalEdgeStyle;rounded=0;orthogonalLoop=1;jettySize=auto;html=1;entryX=0;entryY=0.5;entryDx=0;entryDy=0;entryPerimeter=0;curved=1;" parent="1" source="yl3veX5Xm9Zuc3RiuTOj-11" target="yl3veX5Xm9Zuc3RiuTOj-34" edge="1"><mxGeometry relative="1" as="geometry"/></mxCell><mxCell id="yl3veX5Xm9Zuc3RiuTOj-37" value="" style="shadow=0;dashed=0;html=1;strokeColor=none;fillColor=#4495D1;labelPosition=center;verticalLabelPosition=bottom;verticalAlign=top;align=center;outlineConnect=0;shape=mxgraph.veeam.data_file;" parent="1" vertex="1"><mxGeometry x="890.08" y="235" width="30" height="42" as="geometry"/></mxCell><mxCell id="yl3veX5Xm9Zuc3RiuTOj-39" value="" style="sketch=0;outlineConnect=0;fontColor=#232F3E;gradientColor=none;fillColor=#7AA116;strokeColor=none;dashed=0;verticalLabelPosition=bottom;verticalAlign=top;align=center;html=1;fontSize=12;fontStyle=0;aspect=fixed;pointerEvents=1;shape=mxgraph.aws4.file_cache_s3_linked_datasets;" parent="1" vertex="1"><mxGeometry x="890.08" y="277" width="30" height="30" as="geometry"/></mxCell><mxCell id="yl3veX5Xm9Zuc3RiuTOj-40" value="" style="strokeWidth=2;html=1;shape=mxgraph.flowchart.database;whiteSpace=wrap;" parent="1" vertex="1"><mxGeometry x="890.1600000000001" y="320" width="30" height="32" as="geometry"/></mxCell><mxCell id="yl3veX5Xm9Zuc3RiuTOj-42" style="edgeStyle=orthogonalEdgeStyle;rounded=0;orthogonalLoop=1;jettySize=auto;html=1;entryX=0;entryY=0.5;entryDx=0;entryDy=0;entryPerimeter=0;curved=1;" parent="1" source="yl3veX5Xm9Zuc3RiuTOj-13" target="yl3veX5Xm9Zuc3RiuTOj-40" edge="1"><mxGeometry relative="1" as="geometry"/></mxCell><mxCell id="yl3veX5Xm9Zuc3RiuTOj-43" value="" style="image;html=1;image=img/lib/clip_art/computers/Database_128x128.png" parent="1" vertex="1"><mxGeometry x="295" y="720" width="80" height="80" as="geometry"/></mxCell><mxCell id="P9-Pfm3qsMGepWDaobiE-1" value="&lt;div style=&quot;text-align: justify;&quot;&gt;&lt;div&gt;&lt;b&gt;JobRepository&lt;/b&gt; is the persistence mechanism for all of the stereotypes mentioned earlier. It provides CRUD operations for JobLauncher, Job, and Step implementations. When a Job is first launched, a JobExecution is obtained from the repository. Also, during the course of execution, StepExecution and JobExecution implementations are persisted by passing them to the repository.&lt;/div&gt;&lt;div&gt;&lt;br&gt;&lt;/div&gt;&lt;div&gt;When using Java configuration, the @EnableBatchProcessing annotation provides a JobRepository as one of the components that is automatically configured.&lt;/div&gt;&lt;/div&gt;" style="rounded=0;whiteSpace=wrap;html=1;perimeterSpacing=0;spacingLeft=5;spacingBottom=5;spacingRight=5;spacingTop=5;spacing=3;dashed=1;" parent="1" vertex="1"><mxGeometry x="690" y="622" width="271" height="213" as="geometry"/></mxCell><mxCell id="P9-Pfm3qsMGepWDaobiE-2" style="rounded=0;orthogonalLoop=1;jettySize=auto;html=1;entryX=0;entryY=0.343;entryDx=0;entryDy=0;entryPerimeter=0;endArrow=none;endFill=0;dashed=1;edgeStyle=orthogonalEdgeStyle;" parent="1" source="yl3veX5Xm9Zuc3RiuTOj-29" target="P9-Pfm3qsMGepWDaobiE-1" edge="1"><mxGeometry relative="1" as="geometry"/></mxCell><mxCell id="P9-Pfm3qsMGepWDaobiE-3" value="&lt;div style=&quot;text-align: justify;&quot;&gt;&lt;code style=&quot;box-sizing: inherit; font-family: var(--monospace-font-family); hyphens: none; background: var(--asciidoctor-code-background); border-radius: 0.25em; padding: 0.125em 0.25em; letter-spacing: -0.0444444px; text-align: start;&quot;&gt;&lt;b&gt;ItemReader&lt;/b&gt;&lt;/code&gt;&amp;nbsp;is an abstraction that represents the retrieval of input for a&amp;nbsp;&lt;code style=&quot;box-sizing: inherit; font-family: var(--monospace-font-family); hyphens: none; background: var(--asciidoctor-code-background); border-radius: 0.25em; padding: 0.125em 0.25em; letter-spacing: -0.0444444px; text-align: start;&quot;&gt;Step&lt;/code&gt;&lt;span style=&quot;font-family: -apple-system, &amp;quot;system-ui&amp;quot;, &amp;quot;Segoe UI&amp;quot;, Roboto, Helvetica, Arial, sans-serif, &amp;quot;Apple Color Emoji&amp;quot;, &amp;quot;Segoe UI Emoji&amp;quot;, &amp;quot;Segoe UI Symbol&amp;quot;; letter-spacing: -0.0444444px; text-align: start;&quot;&gt;, one item at a time. When the&amp;nbsp;&lt;/span&gt;&lt;code style=&quot;box-sizing: inherit; font-family: var(--monospace-font-family); hyphens: none; background: var(--asciidoctor-code-background); border-radius: 0.25em; padding: 0.125em 0.25em; letter-spacing: -0.0444444px; text-align: start;&quot;&gt;ItemReader&lt;/code&gt;&lt;span style=&quot;font-family: -apple-system, &amp;quot;system-ui&amp;quot;, &amp;quot;Segoe UI&amp;quot;, Roboto, Helvetica, Arial, sans-serif, &amp;quot;Apple Color Emoji&amp;quot;, &amp;quot;Segoe UI Emoji&amp;quot;, &amp;quot;Segoe UI Symbol&amp;quot;; letter-spacing: -0.0444444px; text-align: start;&quot;&gt;&amp;nbsp;has exhausted the items it can provide, it indicates this by returning&amp;nbsp;&lt;/span&gt;&lt;code style=&quot;box-sizing: inherit; font-family: var(--monospace-font-family); hyphens: none; background: var(--asciidoctor-code-background); border-radius: 0.25em; padding: 0.125em 0.25em; letter-spacing: -0.0444444px; text-align: start;&quot;&gt;null&lt;/code&gt;&lt;span style=&quot;font-family: -apple-system, &amp;quot;system-ui&amp;quot;, &amp;quot;Segoe UI&amp;quot;, Roboto, Helvetica, Arial, sans-serif, &amp;quot;Apple Color Emoji&amp;quot;, &amp;quot;Segoe UI Emoji&amp;quot;, &amp;quot;Segoe UI Symbol&amp;quot;; letter-spacing: -0.0444444px; text-align: start;&quot;&gt;. You can find more details about the&amp;nbsp;&lt;/span&gt;&lt;code style=&quot;box-sizing: inherit; font-family: var(--monospace-font-family); hyphens: none; background: var(--asciidoctor-code-background); border-radius: 0.25em; padding: 0.125em 0.25em; letter-spacing: -0.0444444px; text-align: start;&quot;&gt;ItemReader&lt;/code&gt;&lt;span style=&quot;font-family: -apple-system, &amp;quot;system-ui&amp;quot;, &amp;quot;Segoe UI&amp;quot;, Roboto, Helvetica, Arial, sans-serif, &amp;quot;Apple Color Emoji&amp;quot;, &amp;quot;Segoe UI Emoji&amp;quot;, &amp;quot;Segoe UI Symbol&amp;quot;; letter-spacing: -0.0444444px; text-align: start;&quot;&gt;&amp;nbsp;interface and its various implementations in&amp;nbsp;&lt;/span&gt;&lt;a style=&quot;box-sizing: inherit; text-decoration-line: none; font-family: -apple-system, &amp;quot;system-ui&amp;quot;, &amp;quot;Segoe UI&amp;quot;, Roboto, Helvetica, Arial, sans-serif, &amp;quot;Apple Color Emoji&amp;quot;, &amp;quot;Segoe UI Emoji&amp;quot;, &amp;quot;Segoe UI Symbol&amp;quot;; letter-spacing: -0.0444444px; text-align: start;&quot; href=&quot;https://docs.spring.io/spring-batch/docs/current/reference/html/readersAndWriters.html#readersAndWriters&quot;&gt;Readers And Writers&lt;/a&gt;&lt;span style=&quot;font-family: -apple-system, &amp;quot;system-ui&amp;quot;, &amp;quot;Segoe UI&amp;quot;, Roboto, Helvetica, Arial, sans-serif, &amp;quot;Apple Color Emoji&amp;quot;, &amp;quot;Segoe UI Emoji&amp;quot;, &amp;quot;Segoe UI Symbol&amp;quot;; letter-spacing: -0.0444444px; text-align: start;&quot;&gt;.&lt;/span&gt;&lt;br&gt;&lt;/div&gt;" style="rounded=0;whiteSpace=wrap;html=1;perimeterSpacing=0;spacingLeft=5;spacingBottom=5;spacingRight=5;spacingTop=5;spacing=3;dashed=1;fontColor=default;" parent="1" vertex="1"><mxGeometry x="1046" y="182" width="235" height="139" as="geometry"/></mxCell><mxCell id="P9-Pfm3qsMGepWDaobiE-5" value="&lt;div style=&quot;text-align: justify;&quot;&gt;&lt;code style=&quot;box-sizing: inherit; font-family: var(--monospace-font-family); hyphens: none; background: var(--asciidoctor-code-background); border-radius: 0.25em; padding: 0.125em 0.25em; letter-spacing: -0.0444444px; text-align: start;&quot;&gt;&lt;b&gt;ItemProcessor&lt;/b&gt;&lt;/code&gt;&amp;nbsp;is an abstraction that represents the business processing of an item. While the&amp;nbsp;&lt;code style=&quot;box-sizing: inherit; font-family: var(--monospace-font-family); hyphens: none; background: var(--asciidoctor-code-background); border-radius: 0.25em; padding: 0.125em 0.25em; letter-spacing: -0.0444444px; text-align: start;&quot;&gt;ItemReader&lt;/code&gt;&lt;span style=&quot;font-family: -apple-system, &amp;quot;system-ui&amp;quot;, &amp;quot;Segoe UI&amp;quot;, Roboto, Helvetica, Arial, sans-serif, &amp;quot;Apple Color Emoji&amp;quot;, &amp;quot;Segoe UI Emoji&amp;quot;, &amp;quot;Segoe UI Symbol&amp;quot;; letter-spacing: -0.0444444px; text-align: start;&quot;&gt;&amp;nbsp;reads one item, and the&amp;nbsp;&lt;/span&gt;&lt;code style=&quot;box-sizing: inherit; font-family: var(--monospace-font-family); hyphens: none; background: var(--asciidoctor-code-background); border-radius: 0.25em; padding: 0.125em 0.25em; letter-spacing: -0.0444444px; text-align: start;&quot;&gt;ItemWriter&lt;/code&gt;&lt;span style=&quot;font-family: -apple-system, &amp;quot;system-ui&amp;quot;, &amp;quot;Segoe UI&amp;quot;, Roboto, Helvetica, Arial, sans-serif, &amp;quot;Apple Color Emoji&amp;quot;, &amp;quot;Segoe UI Emoji&amp;quot;, &amp;quot;Segoe UI Symbol&amp;quot;; letter-spacing: -0.0444444px; text-align: start;&quot;&gt;&amp;nbsp;writes one item, the&amp;nbsp;&lt;/span&gt;&lt;code style=&quot;box-sizing: inherit; font-family: var(--monospace-font-family); hyphens: none; background: var(--asciidoctor-code-background); border-radius: 0.25em; padding: 0.125em 0.25em; letter-spacing: -0.0444444px; text-align: start;&quot;&gt;ItemProcessor&lt;/code&gt;&lt;span style=&quot;font-family: -apple-system, &amp;quot;system-ui&amp;quot;, &amp;quot;Segoe UI&amp;quot;, Roboto, Helvetica, Arial, sans-serif, &amp;quot;Apple Color Emoji&amp;quot;, &amp;quot;Segoe UI Emoji&amp;quot;, &amp;quot;Segoe UI Symbol&amp;quot;; letter-spacing: -0.0444444px; text-align: start;&quot;&gt;&amp;nbsp;provides an access point to transform or apply other business processing. If, while processing the item, it is determined that the item is not valid, returning&amp;nbsp;&lt;/span&gt;&lt;code style=&quot;box-sizing: inherit; font-family: var(--monospace-font-family); hyphens: none; background: var(--asciidoctor-code-background); border-radius: 0.25em; padding: 0.125em 0.25em; letter-spacing: -0.0444444px; text-align: start;&quot;&gt;null&lt;/code&gt;&lt;span style=&quot;font-family: -apple-system, &amp;quot;system-ui&amp;quot;, &amp;quot;Segoe UI&amp;quot;, Roboto, Helvetica, Arial, sans-serif, &amp;quot;Apple Color Emoji&amp;quot;, &amp;quot;Segoe UI Emoji&amp;quot;, &amp;quot;Segoe UI Symbol&amp;quot;; letter-spacing: -0.0444444px; text-align: start;&quot;&gt;&amp;nbsp;indicates that the item should not be written out. You can find more details about the&amp;nbsp;&lt;/span&gt;&lt;code style=&quot;box-sizing: inherit; font-family: var(--monospace-font-family); hyphens: none; background: var(--asciidoctor-code-background); border-radius: 0.25em; padding: 0.125em 0.25em; letter-spacing: -0.0444444px; text-align: start;&quot;&gt;ItemProcessor&lt;/code&gt;&lt;span style=&quot;font-family: -apple-system, &amp;quot;system-ui&amp;quot;, &amp;quot;Segoe UI&amp;quot;, Roboto, Helvetica, Arial, sans-serif, &amp;quot;Apple Color Emoji&amp;quot;, &amp;quot;Segoe UI Emoji&amp;quot;, &amp;quot;Segoe UI Symbol&amp;quot;; letter-spacing: -0.0444444px; text-align: start;&quot;&gt;&amp;nbsp;interface in&amp;nbsp;&lt;/span&gt;&lt;a style=&quot;box-sizing: inherit; text-decoration-line: none; font-family: -apple-system, &amp;quot;system-ui&amp;quot;, &amp;quot;Segoe UI&amp;quot;, Roboto, Helvetica, Arial, sans-serif, &amp;quot;Apple Color Emoji&amp;quot;, &amp;quot;Segoe UI Emoji&amp;quot;, &amp;quot;Segoe UI Symbol&amp;quot;; letter-spacing: -0.0444444px; text-align: start;&quot; href=&quot;https://docs.spring.io/spring-batch/docs/current/reference/html/readersAndWriters.html#readersAndWriters&quot;&gt;Readers And Writers&lt;/a&gt;&lt;span style=&quot;font-family: -apple-system, &amp;quot;system-ui&amp;quot;, &amp;quot;Segoe UI&amp;quot;, Roboto, Helvetica, Arial, sans-serif, &amp;quot;Apple Color Emoji&amp;quot;, &amp;quot;Segoe UI Emoji&amp;quot;, &amp;quot;Segoe UI Symbol&amp;quot;; letter-spacing: -0.0444444px; text-align: start;&quot;&gt;.&lt;/span&gt;&lt;br&gt;&lt;/div&gt;" style="rounded=0;whiteSpace=wrap;html=1;perimeterSpacing=0;spacingLeft=5;spacingBottom=5;spacingRight=5;spacingTop=5;spacing=3;dashed=1;fontColor=default;" parent="1" vertex="1"><mxGeometry x="1046" y="334" width="235" height="211" as="geometry"/></mxCell><mxCell id="P9-Pfm3qsMGepWDaobiE-6" value="&lt;div style=&quot;text-align: justify;&quot;&gt;&lt;code style=&quot;box-sizing: inherit; font-family: var(--monospace-font-family); hyphens: none; background: var(--asciidoctor-code-background); border-radius: 0.25em; padding: 0.125em 0.25em; letter-spacing: -0.0444444px; text-align: start;&quot;&gt;&lt;b&gt;ItemWriter&lt;/b&gt;&lt;/code&gt;&amp;nbsp;is an abstraction that represents the output of a&amp;nbsp;&lt;code style=&quot;box-sizing: inherit; font-family: var(--monospace-font-family); hyphens: none; background: var(--asciidoctor-code-background); border-radius: 0.25em; padding: 0.125em 0.25em; letter-spacing: -0.0444444px; text-align: start;&quot;&gt;Step&lt;/code&gt;&lt;span style=&quot;font-family: -apple-system, &amp;quot;system-ui&amp;quot;, &amp;quot;Segoe UI&amp;quot;, Roboto, Helvetica, Arial, sans-serif, &amp;quot;Apple Color Emoji&amp;quot;, &amp;quot;Segoe UI Emoji&amp;quot;, &amp;quot;Segoe UI Symbol&amp;quot;; letter-spacing: -0.0444444px; text-align: start;&quot;&gt;, one batch or chunk of items at a time. Generally, an&amp;nbsp;&lt;/span&gt;&lt;code style=&quot;box-sizing: inherit; font-family: var(--monospace-font-family); hyphens: none; background: var(--asciidoctor-code-background); border-radius: 0.25em; padding: 0.125em 0.25em; letter-spacing: -0.0444444px; text-align: start;&quot;&gt;ItemWriter&lt;/code&gt;&lt;span style=&quot;font-family: -apple-system, &amp;quot;system-ui&amp;quot;, &amp;quot;Segoe UI&amp;quot;, Roboto, Helvetica, Arial, sans-serif, &amp;quot;Apple Color Emoji&amp;quot;, &amp;quot;Segoe UI Emoji&amp;quot;, &amp;quot;Segoe UI Symbol&amp;quot;; letter-spacing: -0.0444444px; text-align: start;&quot;&gt;&amp;nbsp;has no knowledge of the input it should receive next and knows only the item that was passed in its current invocation. You can find more details about the&amp;nbsp;&lt;/span&gt;&lt;code style=&quot;box-sizing: inherit; font-family: var(--monospace-font-family); hyphens: none; background: var(--asciidoctor-code-background); border-radius: 0.25em; padding: 0.125em 0.25em; letter-spacing: -0.0444444px; text-align: start;&quot;&gt;ItemWriter&lt;/code&gt;&lt;span style=&quot;font-family: -apple-system, &amp;quot;system-ui&amp;quot;, &amp;quot;Segoe UI&amp;quot;, Roboto, Helvetica, Arial, sans-serif, &amp;quot;Apple Color Emoji&amp;quot;, &amp;quot;Segoe UI Emoji&amp;quot;, &amp;quot;Segoe UI Symbol&amp;quot;; letter-spacing: -0.0444444px; text-align: start;&quot;&gt;&amp;nbsp;interface and its various implementations in&amp;nbsp;&lt;/span&gt;&lt;a style=&quot;box-sizing: inherit; text-decoration-line: none; font-family: -apple-system, &amp;quot;system-ui&amp;quot;, &amp;quot;Segoe UI&amp;quot;, Roboto, Helvetica, Arial, sans-serif, &amp;quot;Apple Color Emoji&amp;quot;, &amp;quot;Segoe UI Emoji&amp;quot;, &amp;quot;Segoe UI Symbol&amp;quot;; letter-spacing: -0.0444444px; text-align: start;&quot; href=&quot;https://docs.spring.io/spring-batch/docs/current/reference/html/readersAndWriters.html#readersAndWriters&quot;&gt;Readers And Writers&lt;/a&gt;&lt;span style=&quot;font-family: -apple-system, &amp;quot;system-ui&amp;quot;, &amp;quot;Segoe UI&amp;quot;, Roboto, Helvetica, Arial, sans-serif, &amp;quot;Apple Color Emoji&amp;quot;, &amp;quot;Segoe UI Emoji&amp;quot;, &amp;quot;Segoe UI Symbol&amp;quot;; letter-spacing: -0.0444444px; text-align: start;&quot;&gt;.&lt;/span&gt;&lt;br&gt;&lt;/div&gt;" style="rounded=0;whiteSpace=wrap;html=1;perimeterSpacing=0;spacingLeft=5;spacingBottom=5;spacingRight=5;spacingTop=5;spacing=3;dashed=1;fontColor=default;" parent="1" vertex="1"><mxGeometry x="1046" y="557" width="235" height="163" as="geometry"/></mxCell><mxCell id="P9-Pfm3qsMGepWDaobiE-9" value="&lt;div style=&quot;text-align: justify;&quot;&gt;&lt;code spellcheck=&quot;false&quot; class=&quot;skipProofing&quot;&gt;JobLauncher&lt;/code&gt;&amp;nbsp;represents a simple interface for launching a&amp;nbsp;&lt;code spellcheck=&quot;false&quot; class=&quot;skipProofing&quot;&gt;Job&lt;/code&gt;&lt;span style=&quot;font-size:inherit;&quot;&gt;&amp;nbsp;with a given set of&amp;nbsp;&lt;/span&gt;&lt;code spellcheck=&quot;false&quot; class=&quot;skipProofing&quot;&gt;JobParameters&lt;/code&gt;&lt;br&gt;&lt;/div&gt;" style="rounded=0;whiteSpace=wrap;html=1;perimeterSpacing=0;spacingLeft=5;spacingBottom=5;spacingRight=5;spacingTop=5;spacing=3;dashed=1;fontColor=default;" parent="1" vertex="1"><mxGeometry x="40.25" y="187" width="159.5" height="78" as="geometry"/></mxCell></root></mxGraphModel></diagram><diagram id="HXjGruROoYMTGbpHQyzr" name="job"><mxGraphModel dx="3568" dy="1067" grid="0" gridSize="10" guides="0" tooltips="1" connect="0" arrows="0" fold="1" page="0" pageScale="1" pageWidth="1169" pageHeight="827" math="0" shadow="0"><root><mxCell id="0"/><mxCell id="1" parent="0"/><mxCell id="NN2nOY_6sVI-5jHSXcRK-5" style="edgeStyle=orthogonalEdgeStyle;rounded=0;orthogonalLoop=1;jettySize=auto;html=1;entryX=0;entryY=0.5;entryDx=0;entryDy=0;shape=flexArrow;" parent="1" source="NN2nOY_6sVI-5jHSXcRK-2" target="NN2nOY_6sVI-5jHSXcRK-3" edge="1"><mxGeometry relative="1" as="geometry"/></mxCell><mxCell id="EEX0fUr380kobih5SAM4-2" style="edgeStyle=orthogonalEdgeStyle;rounded=0;orthogonalLoop=1;jettySize=auto;html=1;endArrow=none;endFill=0;dashed=1;" parent="1" source="NN2nOY_6sVI-5jHSXcRK-2" target="EEX0fUr380kobih5SAM4-1" edge="1"><mxGeometry relative="1" as="geometry"/></mxCell><mxCell id="NN2nOY_6sVI-5jHSXcRK-2" value="Job" style="rounded=1;whiteSpace=wrap;html=1;fillColor=#ffe6cc;strokeColor=#d79b00;fontColor=#000000;" parent="1" vertex="1"><mxGeometry x="-1094.5" y="377" width="120" height="60" as="geometry"/></mxCell><mxCell id="NN2nOY_6sVI-5jHSXcRK-6" style="edgeStyle=orthogonalEdgeStyle;rounded=0;orthogonalLoop=1;jettySize=auto;html=1;entryX=0;entryY=0.5;entryDx=0;entryDy=0;shape=flexArrow;" parent="1" source="NN2nOY_6sVI-5jHSXcRK-3" target="NN2nOY_6sVI-5jHSXcRK-4" edge="1"><mxGeometry relative="1" as="geometry"/></mxCell><mxCell id="EEX0fUr380kobih5SAM4-4" style="edgeStyle=orthogonalEdgeStyle;rounded=0;orthogonalLoop=1;jettySize=auto;html=1;entryX=0.5;entryY=0;entryDx=0;entryDy=0;endArrow=none;endFill=0;dashed=1;" parent="1" source="NN2nOY_6sVI-5jHSXcRK-3" target="EEX0fUr380kobih5SAM4-3" edge="1"><mxGeometry relative="1" as="geometry"/></mxCell><mxCell id="NN2nOY_6sVI-5jHSXcRK-3" value="JobInstance" style="rounded=1;whiteSpace=wrap;html=1;fillColor=#bac8d3;strokeColor=default;fontColor=#000000;" parent="1" vertex="1"><mxGeometry x="-859.5" y="377" width="120" height="60" as="geometry"/></mxCell><mxCell id="EEX0fUr380kobih5SAM4-6" style="edgeStyle=orthogonalEdgeStyle;rounded=0;orthogonalLoop=1;jettySize=auto;html=1;entryX=0.5;entryY=1;entryDx=0;entryDy=0;dashed=1;endArrow=none;endFill=0;" parent="1" source="NN2nOY_6sVI-5jHSXcRK-4" target="EEX0fUr380kobih5SAM4-5" edge="1"><mxGeometry relative="1" as="geometry"/></mxCell><mxCell id="NN2nOY_6sVI-5jHSXcRK-4" value="JobExecution" style="rounded=1;whiteSpace=wrap;html=1;fillColor=#bac8d3;strokeColor=#23445d;fontColor=#000000;" parent="1" vertex="1"><mxGeometry x="-624.5" y="377" width="120" height="60" as="geometry"/></mxCell><mxCell id="EEX0fUr380kobih5SAM4-1" value="&lt;div style=&quot;text-align: justify;&quot;&gt;&lt;span style=&quot;font-size: 10px; background-color: initial;&quot;&gt;A Job in Spring Batch is a central entity that encompasses an entire batch process. Configured through XML or Java-based setup, referred to as &quot;job configuration,&quot; it acts as the top-level element in a hierarchy, organizing multiple Step instances logically. These steps are grouped within the Job to form a cohesive flow, allowing for global configuration of properties, such as restartability. The job configuration includes the job's name, the definition, and ordering of its Step instances, and a specification of whether the job is restartable or not.&lt;/span&gt;&lt;/div&gt;" style="rounded=0;whiteSpace=wrap;html=1;perimeterSpacing=0;spacingLeft=5;spacingBottom=5;spacingRight=5;spacingTop=5;spacing=3;dashed=1;" parent="1" vertex="1"><mxGeometry x="-1135" y="65" width="201" height="211" as="geometry"/></mxCell><mxCell id="EEX0fUr380kobih5SAM4-3" value="&lt;div style=&quot;text-align: justify;&quot;&gt;A JobInstance in Spring Batch represents a distinct run of a batch job. For example, consider an EndOfDay job meant to run daily. Despite there being a single EndOfDay job, each run is tracked as a separate JobInstance, like the January 1st or January 2nd run. Even if a run fails and is rerun the next day, it retains its original identity, such as the January 1st run. Each JobInstance can have multiple executions, but only one JobInstance, associated with specific JobParameters, runs at any given time.&lt;br&gt;&lt;/div&gt;" style="rounded=0;whiteSpace=wrap;html=1;perimeterSpacing=0;spacingLeft=5;spacingBottom=5;spacingRight=5;spacingTop=5;spacing=3;dashed=1;" parent="1" vertex="1"><mxGeometry x="-900.5" y="537" width="201" height="236" as="geometry"/></mxCell><mxCell id="EEX0fUr380kobih5SAM4-5" value="&lt;div style=&quot;text-align: justify;&quot;&gt;A JobExecution in Spring Batch represents a single attempt to run a job, which can result in success or failure. The associated JobInstance is considered incomplete until the execution successfully completes. For instance, in the context of the EndOfDay Job, if a JobInstance for January 1st fails on its initial run and is rerun with the same job parameters, a new JobExecution is generated, but only one JobInstance persists.&lt;br&gt;&lt;/div&gt;" style="rounded=0;whiteSpace=wrap;html=1;perimeterSpacing=0;spacingLeft=5;spacingBottom=5;spacingRight=5;spacingTop=5;spacing=3;dashed=1;" parent="1" vertex="1"><mxGeometry x="-665" y="65" width="201" height="211" as="geometry"/></mxCell><mxCell id="EEX0fUr380kobih5SAM4-7" value="&lt;div style=&quot;text-align: justify;&quot;&gt;The definition of a JobInstance doesn't impact data loading; that's determined by the ItemReader implementation. For instance, in an EndOfDay scenario, the data may include a column indicating the effective date. The January 1st run, for instance, loads data only from the 1st, and the January 2nd run uses data from the 2nd. This decision is often a business choice for the ItemReader to make. However, reusing the same JobInstance determines whether the &quot;state&quot; (e.g., the ExecutionContext, explained later) from prior executions is utilized. Starting a new JobInstance means &quot;begin from the start,&quot; while using an existing instance generally means &quot;resume from where you left off.&quot;&lt;br&gt;&lt;/div&gt;" style="rounded=0;whiteSpace=wrap;html=1;perimeterSpacing=0;spacingLeft=5;spacingBottom=5;spacingRight=5;spacingTop=5;spacing=3;dashed=1;" parent="1" vertex="1"><mxGeometry x="-684.5" y="537" width="271" height="236" as="geometry"/></mxCell><mxCell id="EEX0fUr380kobih5SAM4-8" value="&lt;div style=&quot;text-align: justify;&quot;&gt;A&amp;nbsp;&lt;code style=&quot;box-sizing: inherit; font-family: var(--monospace-font-family); hyphens: none; background-image: ; background-position-x: ; background-position-y: ; background-size: ; background-repeat-x: ; background-repeat-y: ; background-attachment: ; background-origin: ; background-clip: ; border-radius: 0.25em; font-size: 0.95em; padding: 0.125em 0.25em; letter-spacing: -0.0444444px; text-align: start;&quot;&gt;Job&lt;/code&gt;&lt;span style=&quot;font-family: -apple-system, &amp;quot;system-ui&amp;quot;, &amp;quot;Segoe UI&amp;quot;, Roboto, Helvetica, Arial, sans-serif, &amp;quot;Apple Color Emoji&amp;quot;, &amp;quot;Segoe UI Emoji&amp;quot;, &amp;quot;Segoe UI Symbol&amp;quot;; font-size: 16px; letter-spacing: -0.0444444px; text-align: start;&quot;&gt;&amp;nbsp;defines what a job is and how it is to be executed, and a&amp;nbsp;&lt;/span&gt;&lt;code style=&quot;box-sizing: inherit; font-family: var(--monospace-font-family); hyphens: none; background-image: ; background-position-x: ; background-position-y: ; background-size: ; background-repeat-x: ; background-repeat-y: ; background-attachment: ; background-origin: ; background-clip: ; border-radius: 0.25em; font-size: 0.95em; padding: 0.125em 0.25em; letter-spacing: -0.0444444px; text-align: start;&quot;&gt;JobInstance&lt;/code&gt;&lt;span style=&quot;font-family: -apple-system, &amp;quot;system-ui&amp;quot;, &amp;quot;Segoe UI&amp;quot;, Roboto, Helvetica, Arial, sans-serif, &amp;quot;Apple Color Emoji&amp;quot;, &amp;quot;Segoe UI Emoji&amp;quot;, &amp;quot;Segoe UI Symbol&amp;quot;; font-size: 16px; letter-spacing: -0.0444444px; text-align: start;&quot;&gt;&amp;nbsp;is a purely organizational object to group executions together, primarily to enable correct restart semantics. A&amp;nbsp;&lt;/span&gt;&lt;code style=&quot;box-sizing: inherit; font-family: var(--monospace-font-family); hyphens: none; background-image: ; background-position-x: ; background-position-y: ; background-size: ; background-repeat-x: ; background-repeat-y: ; background-attachment: ; background-origin: ; background-clip: ; border-radius: 0.25em; font-size: 0.95em; padding: 0.125em 0.25em; letter-spacing: -0.0444444px; text-align: start;&quot;&gt;JobExecution&lt;/code&gt;&lt;span style=&quot;font-family: -apple-system, &amp;quot;system-ui&amp;quot;, &amp;quot;Segoe UI&amp;quot;, Roboto, Helvetica, Arial, sans-serif, &amp;quot;Apple Color Emoji&amp;quot;, &amp;quot;Segoe UI Emoji&amp;quot;, &amp;quot;Segoe UI Symbol&amp;quot;; font-size: 16px; letter-spacing: -0.0444444px; text-align: start;&quot;&gt;, however, is the primary storage mechanism for what actually happened during a run and contains many more properties that must be controlled and persisted&lt;/span&gt;&lt;br&gt;&lt;/div&gt;" style="rounded=0;whiteSpace=wrap;html=1;perimeterSpacing=0;spacingLeft=5;spacingBottom=5;spacingRight=5;spacingTop=5;spacing=3;dashed=1;fontColor=default;labelBackgroundColor=none;" parent="1" vertex="1"><mxGeometry x="-317" y="301.5" width="292" height="207.5" as="geometry"/></mxCell></root></mxGraphModel></diagram><diagram id="Ef1nbyYsLGab0r5on7DX" name="step"><mxGraphModel dx="3568" dy="1067" grid="0" gridSize="10" guides="1" tooltips="1" connect="1" arrows="1" fold="1" page="0" pageScale="1" pageWidth="1169" pageHeight="827" math="0" shadow="0"><root><mxCell id="0"/><mxCell id="1" parent="0"/><mxCell id="D7_k0E-9rCH20c55N0D--5" style="edgeStyle=orthogonalEdgeStyle;rounded=0;orthogonalLoop=1;jettySize=auto;html=1;shape=flexArrow;" parent="1" source="43FbxMagFOqV9IOYy1X0-1" target="D7_k0E-9rCH20c55N0D--4" edge="1"><mxGeometry relative="1" as="geometry"/></mxCell><mxCell id="D7_k0E-9rCH20c55N0D--6" style="edgeStyle=orthogonalEdgeStyle;rounded=0;orthogonalLoop=1;jettySize=auto;html=1;entryX=0;entryY=0.5;entryDx=0;entryDy=0;shape=flexArrow;" parent="1" source="43FbxMagFOqV9IOYy1X0-1" target="D7_k0E-9rCH20c55N0D--1" edge="1"><mxGeometry relative="1" as="geometry"/></mxCell><mxCell id="43FbxMagFOqV9IOYy1X0-1" value="Job" style="rounded=1;whiteSpace=wrap;html=1;fillColor=#ffe6cc;strokeColor=#d79b00;fontColor=#000000;" parent="1" vertex="1"><mxGeometry x="-1128" y="217" width="120" height="60" as="geometry"/></mxCell><mxCell id="D7_k0E-9rCH20c55N0D--7" style="edgeStyle=orthogonalEdgeStyle;rounded=0;orthogonalLoop=1;jettySize=auto;html=1;entryX=0;entryY=0.5;entryDx=0;entryDy=0;shape=flexArrow;" parent="1" source="D7_k0E-9rCH20c55N0D--1" target="D7_k0E-9rCH20c55N0D--2" edge="1"><mxGeometry relative="1" as="geometry"/></mxCell><mxCell id="D7_k0E-9rCH20c55N0D--1" value="JobInstance" style="rounded=1;whiteSpace=wrap;html=1;fillColor=#bac8d3;strokeColor=default;fontColor=#000000;" parent="1" vertex="1"><mxGeometry x="-1018" y="343" width="120" height="60" as="geometry"/></mxCell><mxCell id="D7_k0E-9rCH20c55N0D--8" style="edgeStyle=orthogonalEdgeStyle;rounded=0;orthogonalLoop=1;jettySize=auto;html=1;entryX=0;entryY=0.5;entryDx=0;entryDy=0;exitX=0.5;exitY=1;exitDx=0;exitDy=0;shape=flexArrow;" parent="1" source="D7_k0E-9rCH20c55N0D--2" target="D7_k0E-9rCH20c55N0D--3" edge="1"><mxGeometry relative="1" as="geometry"/></mxCell><mxCell id="D7_k0E-9rCH20c55N0D--2" value="JobExecution" style="rounded=1;whiteSpace=wrap;html=1;fillColor=#bac8d3;strokeColor=#23445d;fontColor=#000000;" parent="1" vertex="1"><mxGeometry x="-908" y="482" width="120" height="60" as="geometry"/></mxCell><mxCell id="NYk8-hw0B3Sc49OtnR9--4" style="edgeStyle=orthogonalEdgeStyle;rounded=0;orthogonalLoop=1;jettySize=auto;html=1;entryX=0;entryY=0.5;entryDx=0;entryDy=0;dashed=1;endArrow=none;endFill=0;" parent="1" source="D7_k0E-9rCH20c55N0D--3" target="NYk8-hw0B3Sc49OtnR9--1" edge="1"><mxGeometry relative="1" as="geometry"/></mxCell><mxCell id="D7_k0E-9rCH20c55N0D--3" value="StepExecution" style="rounded=1;whiteSpace=wrap;html=1;fillColor=#bac8d3;strokeColor=#23445d;fontColor=#000000;" parent="1" vertex="1"><mxGeometry x="-717" y="573" width="120" height="60" as="geometry"/></mxCell><mxCell id="D7_k0E-9rCH20c55N0D--9" style="edgeStyle=orthogonalEdgeStyle;rounded=0;orthogonalLoop=1;jettySize=auto;html=1;shape=flexArrow;" parent="1" source="D7_k0E-9rCH20c55N0D--4" target="D7_k0E-9rCH20c55N0D--3" edge="1"><mxGeometry relative="1" as="geometry"/></mxCell><mxCell id="D7_k0E-9rCH20c55N0D--4" value="Step" style="rounded=1;whiteSpace=wrap;html=1;fillColor=#d5e8d4;strokeColor=#82b366;fontColor=#000000;" parent="1" vertex="1"><mxGeometry x="-717" y="217" width="120" height="60" as="geometry"/></mxCell><mxCell id="NYk8-hw0B3Sc49OtnR9--1" value="&lt;div style=&quot;text-align: justify;&quot;&gt;&lt;div style=&quot;border-color: var(--border-color); box-sizing: inherit; margin: 1rem 0px 0px; font-family: -apple-system, &amp;quot;system-ui&amp;quot;, &amp;quot;Segoe UI&amp;quot;, Roboto, Helvetica, Arial, sans-serif, &amp;quot;Apple Color Emoji&amp;quot;, &amp;quot;Segoe UI Emoji&amp;quot;, &amp;quot;Segoe UI Symbol&amp;quot;; letter-spacing: -0.0444444px; text-align: start;&quot; class=&quot;paragraph&quot;&gt;&lt;p style=&quot;border-color: var(--border-color); box-sizing: inherit; margin: 0px;&quot;&gt;A&amp;nbsp;&lt;code style=&quot;border-color: var(--border-color); box-sizing: inherit; font-family: var(--monospace-font-family); hyphens: none; border-radius: 0.25em; padding: 0.125em 0.25em;&quot;&gt;StepExecution&lt;/code&gt;&lt;span style=&quot;border-color: var(--border-color);&quot;&gt;&amp;nbsp;&lt;/span&gt;represents a single attempt to execute a&lt;span style=&quot;border-color: var(--border-color);&quot;&gt;&amp;nbsp;&lt;/span&gt;&lt;code style=&quot;border-color: var(--border-color); box-sizing: inherit; font-family: var(--monospace-font-family); hyphens: none; border-radius: 0.25em; padding: 0.125em 0.25em;&quot;&gt;Step&lt;/code&gt;. A new&lt;span style=&quot;border-color: var(--border-color);&quot;&gt;&amp;nbsp;&lt;/span&gt;&lt;code style=&quot;border-color: var(--border-color); box-sizing: inherit; font-family: var(--monospace-font-family); hyphens: none; border-radius: 0.25em; padding: 0.125em 0.25em;&quot;&gt;StepExecution&lt;/code&gt;&lt;span style=&quot;border-color: var(--border-color);&quot;&gt;&amp;nbsp;&lt;/span&gt;is created each time a&lt;span style=&quot;border-color: var(--border-color);&quot;&gt;&amp;nbsp;&lt;/span&gt;&lt;code style=&quot;border-color: var(--border-color); box-sizing: inherit; font-family: var(--monospace-font-family); hyphens: none; border-radius: 0.25em; padding: 0.125em 0.25em;&quot;&gt;Step&lt;/code&gt;&lt;span style=&quot;border-color: var(--border-color);&quot;&gt;&amp;nbsp;&lt;/span&gt;is run, similar to&lt;span style=&quot;border-color: var(--border-color);&quot;&gt;&amp;nbsp;&lt;/span&gt;&lt;code style=&quot;border-color: var(--border-color); box-sizing: inherit; font-family: var(--monospace-font-family); hyphens: none; border-radius: 0.25em; padding: 0.125em 0.25em;&quot;&gt;JobExecution&lt;/code&gt;. However, if a step fails to execute because the step before it fails, no execution is persisted for it. A&lt;span style=&quot;border-color: var(--border-color);&quot;&gt;&amp;nbsp;&lt;/span&gt;&lt;code style=&quot;border-color: var(--border-color); box-sizing: inherit; font-family: var(--monospace-font-family); hyphens: none; border-radius: 0.25em; padding: 0.125em 0.25em;&quot;&gt;StepExecution&lt;/code&gt;&lt;span style=&quot;border-color: var(--border-color);&quot;&gt;&amp;nbsp;&lt;/span&gt;is created only when its&lt;span style=&quot;border-color: var(--border-color);&quot;&gt;&amp;nbsp;&lt;/span&gt;&lt;code style=&quot;border-color: var(--border-color); box-sizing: inherit; font-family: var(--monospace-font-family); hyphens: none; border-radius: 0.25em; padding: 0.125em 0.25em;&quot;&gt;Step&lt;/code&gt;&lt;span style=&quot;border-color: var(--border-color);&quot;&gt;&amp;nbsp;&lt;/span&gt;is actually started.&lt;/p&gt;&lt;/div&gt;&lt;div style=&quot;border-color: var(--border-color); box-sizing: inherit; margin: 1rem 0px 0px; font-family: -apple-system, &amp;quot;system-ui&amp;quot;, &amp;quot;Segoe UI&amp;quot;, Roboto, Helvetica, Arial, sans-serif, &amp;quot;Apple Color Emoji&amp;quot;, &amp;quot;Segoe UI Emoji&amp;quot;, &amp;quot;Segoe UI Symbol&amp;quot;; letter-spacing: -0.0444444px; text-align: start;&quot; class=&quot;paragraph&quot;&gt;&lt;p style=&quot;border-color: var(--border-color); box-sizing: inherit; margin: 0px;&quot;&gt;&lt;code style=&quot;border-color: var(--border-color); box-sizing: inherit; font-family: var(--monospace-font-family); hyphens: none; border-radius: 0.25em; padding: 0.125em 0.25em;&quot;&gt;Step&lt;/code&gt;&lt;span style=&quot;border-color: var(--border-color);&quot;&gt;&amp;nbsp;&lt;/span&gt;executions are represented by objects of the&lt;span style=&quot;border-color: var(--border-color);&quot;&gt;&amp;nbsp;&lt;/span&gt;&lt;code style=&quot;border-color: var(--border-color); box-sizing: inherit; font-family: var(--monospace-font-family); hyphens: none; border-radius: 0.25em; padding: 0.125em 0.25em;&quot;&gt;StepExecution&lt;/code&gt;&lt;span style=&quot;border-color: var(--border-color);&quot;&gt;&amp;nbsp;&lt;/span&gt;class. Each execution contains a reference to its corresponding step and&lt;span style=&quot;border-color: var(--border-color);&quot;&gt;&amp;nbsp;&lt;/span&gt;&lt;code style=&quot;border-color: var(--border-color); box-sizing: inherit; font-family: var(--monospace-font-family); hyphens: none; border-radius: 0.25em; padding: 0.125em 0.25em;&quot;&gt;JobExecution&lt;/code&gt;&lt;span style=&quot;border-color: var(--border-color);&quot;&gt;&amp;nbsp;&lt;/span&gt;and transaction-related data, such as commit and rollback counts and start and end times. Additionally, each step execution contains an&lt;span style=&quot;border-color: var(--border-color);&quot;&gt;&amp;nbsp;&lt;/span&gt;&lt;code style=&quot;border-color: var(--border-color); box-sizing: inherit; font-family: var(--monospace-font-family); hyphens: none; border-radius: 0.25em; padding: 0.125em 0.25em;&quot;&gt;ExecutionContext&lt;/code&gt;, which contains any data a developer needs to have persisted across batch runs, such as statistics or state information needed to restart.&lt;/p&gt;&lt;/div&gt;&lt;/div&gt;" style="rounded=0;whiteSpace=wrap;html=1;perimeterSpacing=0;spacingLeft=5;spacingBottom=5;spacingRight=5;spacingTop=5;spacing=3;dashed=1;labelBackgroundColor=none;fontColor=default;" parent="1" vertex="1"><mxGeometry x="-413" y="464.75" width="296" height="276.5" as="geometry"/></mxCell><mxCell id="NYk8-hw0B3Sc49OtnR9--2" value="&lt;div style=&quot;text-align: justify;&quot;&gt;&lt;div style=&quot;border-color: var(--border-color); box-sizing: inherit; margin: 1rem 0px 0px; font-family: -apple-system, &amp;quot;system-ui&amp;quot;, &amp;quot;Segoe UI&amp;quot;, Roboto, Helvetica, Arial, sans-serif, &amp;quot;Apple Color Emoji&amp;quot;, &amp;quot;Segoe UI Emoji&amp;quot;, &amp;quot;Segoe UI Symbol&amp;quot;; letter-spacing: -0.0444444px; text-align: start;&quot; class=&quot;paragraph&quot;&gt;&lt;p style=&quot;border-color: var(--border-color); box-sizing: inherit; margin: 0px;&quot;&gt;A&amp;nbsp;&lt;code style=&quot;box-sizing: inherit; font-family: var(--monospace-font-family); hyphens: none; background-image: ; background-position-x: ; background-position-y: ; background-size: ; background-repeat-x: ; background-repeat-y: ; background-attachment: ; background-origin: ; background-clip: ; border-radius: 0.25em; padding: 0.125em 0.25em; letter-spacing: -0.0444444px;&quot;&gt;Step&lt;/code&gt;&lt;span style=&quot;letter-spacing: -0.0444444px;&quot;&gt;&amp;nbsp;is a domain object that encapsulates an independent, sequential phase of a batch job. Therefore, every&amp;nbsp;&lt;/span&gt;&lt;code style=&quot;box-sizing: inherit; font-family: var(--monospace-font-family); hyphens: none; background-image: ; background-position-x: ; background-position-y: ; background-size: ; background-repeat-x: ; background-repeat-y: ; background-attachment: ; background-origin: ; background-clip: ; border-radius: 0.25em; padding: 0.125em 0.25em; letter-spacing: -0.0444444px;&quot;&gt;Job&lt;/code&gt;&lt;span style=&quot;letter-spacing: -0.0444444px;&quot;&gt;&amp;nbsp;is composed entirely of one or more steps. A&amp;nbsp;&lt;/span&gt;&lt;code style=&quot;box-sizing: inherit; font-family: var(--monospace-font-family); hyphens: none; background-image: ; background-position-x: ; background-position-y: ; background-size: ; background-repeat-x: ; background-repeat-y: ; background-attachment: ; background-origin: ; background-clip: ; border-radius: 0.25em; padding: 0.125em 0.25em; letter-spacing: -0.0444444px;&quot;&gt;Step&lt;/code&gt;&lt;span style=&quot;letter-spacing: -0.0444444px;&quot;&gt;&amp;nbsp;contains all of the information necessary to define and control the actual batch processing. This is a necessarily vague description because the contents of any given&amp;nbsp;&lt;/span&gt;&lt;code style=&quot;box-sizing: inherit; font-family: var(--monospace-font-family); hyphens: none; background-image: ; background-position-x: ; background-position-y: ; background-size: ; background-repeat-x: ; background-repeat-y: ; background-attachment: ; background-origin: ; background-clip: ; border-radius: 0.25em; padding: 0.125em 0.25em; letter-spacing: -0.0444444px;&quot;&gt;Step&lt;/code&gt;&lt;span style=&quot;letter-spacing: -0.0444444px;&quot;&gt;&amp;nbsp;are at the discretion of the developer writing a&amp;nbsp;&lt;/span&gt;&lt;code style=&quot;box-sizing: inherit; font-family: var(--monospace-font-family); hyphens: none; background-image: ; background-position-x: ; background-position-y: ; background-size: ; background-repeat-x: ; background-repeat-y: ; background-attachment: ; background-origin: ; background-clip: ; border-radius: 0.25em; padding: 0.125em 0.25em; letter-spacing: -0.0444444px;&quot;&gt;Job&lt;/code&gt;&lt;span style=&quot;letter-spacing: -0.0444444px;&quot;&gt;. A&amp;nbsp;&lt;/span&gt;&lt;code style=&quot;box-sizing: inherit; font-family: var(--monospace-font-family); hyphens: none; background-image: ; background-position-x: ; background-position-y: ; background-size: ; background-repeat-x: ; background-repeat-y: ; background-attachment: ; background-origin: ; background-clip: ; border-radius: 0.25em; padding: 0.125em 0.25em; letter-spacing: -0.0444444px;&quot;&gt;Step&lt;/code&gt;&lt;span style=&quot;letter-spacing: -0.0444444px;&quot;&gt;&amp;nbsp;can be as simple or complex as the developer desires. A simple&amp;nbsp;&lt;/span&gt;&lt;code style=&quot;box-sizing: inherit; font-family: var(--monospace-font-family); hyphens: none; background-image: ; background-position-x: ; background-position-y: ; background-size: ; background-repeat-x: ; background-repeat-y: ; background-attachment: ; background-origin: ; background-clip: ; border-radius: 0.25em; padding: 0.125em 0.25em; letter-spacing: -0.0444444px;&quot;&gt;Step&lt;/code&gt;&lt;span style=&quot;letter-spacing: -0.0444444px;&quot;&gt;&amp;nbsp;might load data from a file into the database, requiring little or no code (depending upon the implementations used). A more complex&amp;nbsp;&lt;/span&gt;&lt;code style=&quot;box-sizing: inherit; font-family: var(--monospace-font-family); hyphens: none; background-image: ; background-position-x: ; background-position-y: ; background-size: ; background-repeat-x: ; background-repeat-y: ; background-attachment: ; background-origin: ; background-clip: ; border-radius: 0.25em; padding: 0.125em 0.25em; letter-spacing: -0.0444444px;&quot;&gt;Step&lt;/code&gt;&lt;span style=&quot;letter-spacing: -0.0444444px;&quot;&gt;&amp;nbsp;may have complicated business rules that are applied as part of the processing. As with a&amp;nbsp;&lt;/span&gt;&lt;code style=&quot;box-sizing: inherit; font-family: var(--monospace-font-family); hyphens: none; background-image: ; background-position-x: ; background-position-y: ; background-size: ; background-repeat-x: ; background-repeat-y: ; background-attachment: ; background-origin: ; background-clip: ; border-radius: 0.25em; padding: 0.125em 0.25em; letter-spacing: -0.0444444px;&quot;&gt;Job&lt;/code&gt;&lt;span style=&quot;letter-spacing: -0.0444444px;&quot;&gt;, a&amp;nbsp;&lt;/span&gt;&lt;code style=&quot;box-sizing: inherit; font-family: var(--monospace-font-family); hyphens: none; background-image: ; background-position-x: ; background-position-y: ; background-size: ; background-repeat-x: ; background-repeat-y: ; background-attachment: ; background-origin: ; background-clip: ; border-radius: 0.25em; padding: 0.125em 0.25em; letter-spacing: -0.0444444px;&quot;&gt;Step&lt;/code&gt;&lt;span style=&quot;letter-spacing: -0.0444444px;&quot;&gt;&amp;nbsp;has an individual&amp;nbsp;&lt;/span&gt;&lt;code style=&quot;box-sizing: inherit; font-family: var(--monospace-font-family); hyphens: none; background-image: ; background-position-x: ; background-position-y: ; background-size: ; background-repeat-x: ; background-repeat-y: ; background-attachment: ; background-origin: ; background-clip: ; border-radius: 0.25em; padding: 0.125em 0.25em; letter-spacing: -0.0444444px;&quot;&gt;StepExecution&lt;/code&gt;&lt;span style=&quot;letter-spacing: -0.0444444px;&quot;&gt;&amp;nbsp;that correlates with a unique&amp;nbsp;&lt;/span&gt;&lt;code style=&quot;box-sizing: inherit; font-family: var(--monospace-font-family); hyphens: none; background-image: ; background-position-x: ; background-position-y: ; background-size: ; background-repeat-x: ; background-repeat-y: ; background-attachment: ; background-origin: ; background-clip: ; border-radius: 0.25em; padding: 0.125em 0.25em; letter-spacing: -0.0444444px;&quot;&gt;JobExecution&lt;/code&gt;&lt;br&gt;&lt;/p&gt;&lt;/div&gt;&lt;/div&gt;" style="rounded=0;whiteSpace=wrap;html=1;perimeterSpacing=0;spacingLeft=5;spacingBottom=5;spacingRight=5;spacingTop=5;spacing=3;dashed=1;strokeColor=default;fontColor=default;labelBackgroundColor=none;" parent="1" vertex="1"><mxGeometry x="-413" y="129" width="296" height="276.5" as="geometry"/></mxCell><mxCell id="NYk8-hw0B3Sc49OtnR9--3" style="edgeStyle=orthogonalEdgeStyle;rounded=0;orthogonalLoop=1;jettySize=auto;html=1;entryX=-0.002;entryY=0.425;entryDx=0;entryDy=0;entryPerimeter=0;endArrow=none;endFill=0;dashed=1;" parent="1" source="D7_k0E-9rCH20c55N0D--4" target="NYk8-hw0B3Sc49OtnR9--2" edge="1"><mxGeometry relative="1" as="geometry"/></mxCell></root></mxGraphModel></diagram></mxfile>